{"title":"Concussion.2015.BRRip.480p.x264.AAC-VYTO [P2PDL]","uid":13823474,"size":481708526,"categoryP":"video","categoryS":"movies","magnet":"?xt=urn:btih:f00831f301639575d37b349194ffd0f3e7ee7029&amp;dn=Concussion.2015.BRRip.480p.x264.AAC-VYTO+%5BP2PDL%5D&amp;tr=udp%3A%2F%2Ftracker.leechers-paradise.org%3A6969&amp;tr=udp%3A%2F%2Fzer0day.ch%3A1337&amp;tr=udp%3A%2F%2Fopen.demonii.com%3A1337&amp;tr=udp%3A%2F%2Ftracker.coppersurfer.tk%3A6969&amp;tr=udp%3A%2F%2Fexodus.desync.com%3A6969","seeders":0,"leechers":4,"uploader":"VYTOP2PDL","files":7,"time":1457674183,"description":"____    ____ ____    ____ .___________.  ______   \r\n     /   /      /   / |           | /  __    \r\n    /   /      /   /  `---|  |----`|  |  |  | \r\n        /     _    _/       |  |     |  |  |  | \r\n       /        |  |         |  |     |  `--'  | \r\n    __/         |__|         |__|      ______/  \r\n                                                  \r\nPresenting Small Encodes with quality for years!\r\n                                                                                                   \r\n                                                                                                   \r\n\r\n\r\nConcussion.2015.BRRip.480p.x264.AAC-VYTO\r\n\r\n\r\nGenre: Biography, Drama, Sport  \nhttp://www.imdb.com/title/tt3322364/\r\n\r\n\r\nFormat                                   : MPEG-4\r\nFile size                                : 452 MiB\r\nDuration                                 : 2h 2mn\r\nOverall bit rate                         : 514 Kbps\r\n\r\nVideo\r\nFormat                                   : AVC\r\nBit rate                                 : 479 Kbps\r\nWidth                                    : 720 pixels\r\nHeight                                   : 304 pixels\r\nDisplay aspect ratio                     : 2.35:1\r\nFrame rate mode                          : Constant\r\nFrame rate                               : 23.976 fps\r\nBit depth                                : 8 bits\r\nStream size                              : 421 MiB (93%)\r\nWriting library                          : x264\r\n\r\nAudio\r\nFormat                                   : AAC\r\nBit rate                                 : 32.0 Kbps\r\nChannel(s)                               : 2 channels\r\nChannel positions                        : Front: L R\r\nSampling rate                            : 48.0 KHz\r\nFrame rate                               : 23.438\r\nStream size                              : 28.1 MiB (6%)\r\nLanguage                                 : English\r\n\r\nSubtitle                                 : Yes (English)\r\n\r\nScreen Shot: (click to view)\r\n \nhttp://ititli.com/X8O \nhttp://ititli.com/Xe9 \nhttp://ititli.com/XeX \nhttp://ititli.com/Xeq \nhttp://ititli.com/Xer \nhttp://ititli.com/Xe1 \nhttp://ititli.com/XeT \nhttp://ititli.com/XeW \nhttp://ititli.com/Xeg\r\n\r\n----------------------------------------------------------------------------------------------------\r\n\r\n\r\nEncoder Notes: Looking For Early Access To Anything You Can Provide WEBDL, DVDScr, DVDR, BluRay,\r\nDirect Audio, Music Releases and Seedboxes. If You Got anything to offer please contact us.\r\n\r\nSupport us by donating BC - 1FgwdzPsd1y25Gea8wP1qni35uGCtmkRCD\r\n\r\nSend some love!\r\nFind us and join us!","torrent":{"xt":"urn:btih:f00831f301639575d37b349194ffd0f3e7ee7029","amp;dn":"Concussion.2015.BRRip.480p.x264.AAC-VYTO+%5BP2PDL%5D","amp;tr":["udp%3A%2F%2Ftracker.leechers-paradise.org%3A6969","udp%3A%2F%2Fzer0day.ch%3A1337","udp%3A%2F%2Fopen.demonii.com%3A1337","udp%3A%2F%2Ftracker.coppersurfer.tk%3A6969","udp%3A%2F%2Fexodus.desync.com%3A6969"],"infoHash":"f00831f301639575d37b349194ffd0f3e7ee7029","infoHashBuffer":{"type":"Buffer","data":[240,8,49,243,1,99,149,117,211,123,52,145,148,255,208,243,231,238,112,41]},"announce":[],"urlList":[]}}